<svg xmlns="http://www.w3.org/2000/svg" width="35" height="17" viewBox="0 0 35 17">
    <g fill="none" fill-rule="evenodd">
        <g fill="#FFF">
            <path d="M34.781 2.595l-.831-.85-7.7 7.873a2.496 2.496 0 0 1-3.544 0l-7.7-7.829-.831.85L19.906 8.5l-5.731 5.86.831.85 5.732-5.86 1.137 1.163c.7.716 1.619 1.119 2.581 1.119.963 0 1.882-.403 2.582-1.119l1.137-1.163 5.731 5.86.832-.85-5.732-5.86 5.775-5.905"/>
            <path d="M33.163 16.732H15.88c-1.006 0-1.837-.85-1.837-1.88V2.238c0-1.03.831-1.88 1.837-1.88h17.282c1.006 0 1.837.85 1.837 1.88v12.616c0 1.029-.831 1.879-1.837 1.879zM15.838 1.566a.605.605 0 0 0-.613.626v12.616c0 .358.262.626.612.626H33.12c.35 0 .612-.268.612-.626V2.192a.605.605 0 0 0-.612-.626H15.838z"/>
        </g>
        <g stroke="#FFF" stroke-linecap="round">
            <path d="M4.5 12.5h6.083M4.5 4.5h6.083M.5 8.5h11.08"/>
        </g>
    </g>
</svg>
