<svg xmlns="http://www.w3.org/2000/svg" width="38" height="48" viewBox="0 0 38 48">
    <g fill="#FFB757" fill-rule="evenodd">
        <path d="M0 42.435h38V48H0zM18.094 17.635c-2.632-.135-4.655-2.399-4.52-5.05.137-2.655 2.38-4.697 5.013-4.56 2.632.135 4.654 2.397 4.52 5.05-.137 2.653-2.38 4.695-5.013 4.56M18.997.017C11.985-.344 6.009 5.093 5.647 12.161a12.816 12.816 0 0 0 2.133 7.79l7.695 14.384a2.161 2.161 0 0 0 1.79 1.14c.75.04 1.471-.322 1.894-.949l9.264-13.722a2.19 2.19 0 0 0 .27-.561 12.805 12.805 0 0 0 2.34-6.774C31.397 6.401 26.007.379 18.998.017"/>
    </g>
</svg>
