<svg xmlns="http://www.w3.org/2000/svg" width="24" height="24" viewBox="0 0 24 24">
    <g fill="none" fill-rule="evenodd">
        <path fill="#A4A4A4" fill-rule="nonzero" d="M16.16 14.14a.49.49 0 0 1-.151.359l-3.57 3.57a.49.49 0 0 1-.359.151.49.49 0 0 1-.359-.151l-3.57-3.57A.49.49 0 0 1 8 14.14a.49.49 0 0 1 .151-.358c.101-.101.22-.152.359-.152h7.14a.49.49 0 0 1 .359.152c.1.1.151.22.151.358zm0-3.06a.49.49 0 0 1-.151.359.49.49 0 0 1-.359.151H8.51a.49.49 0 0 1-.359-.151A.49.49 0 0 1 8 11.08a.49.49 0 0 1 .151-.359l3.57-3.57c.101-.1.221-.151.36-.151a.49.49 0 0 1 .358.151l3.57 3.57c.1.101.151.221.151.36z"/>
    </g>
</svg>
