<svg xmlns="http://www.w3.org/2000/svg" xmlns:xlink="http://www.w3.org/1999/xlink" width="96" height="96" viewBox="0 0 96 96">
    <defs>
        <path id="a" d="M0 96.548V.866h95.681v95.682z"/>
        <path id="c" d="M69.42 26.414c-7.947 10.4-20.48 17.11-34.58 17.11-14.1 0-26.632-6.71-34.58-17.11V.03h69.16v26.383z"/>
        <path id="e" d="M54.884 53.096a43.31 43.31 0 0 1-27.044 9.428A43.307 43.307 0 0 1 .796 53.095V.121h54.088v52.975z"/>
        <path id="g" d="M69.42 26.414c-7.947 10.4-20.48 17.11-34.58 17.11-14.1 0-26.633-6.71-34.58-17.11V.03h69.16v26.383z"/>
        <path id="i" d="M69.421 26.413c-7.947 10.401-20.48 17.111-34.581 17.111-14.1 0-26.632-6.71-34.579-17.11V.031h69.16v26.382z"/>
    </defs>
    <g fill="none" fill-rule="evenodd">
        <path fill="#FFB757" d="M47.84 93.681C22.566 93.681 2 73.117 2 47.841 2 22.562 22.565 1.998 47.84 1.998 73.118 2 93.683 22.563 93.683 47.84S73.117 93.681 47.84 93.681"/>
        <g transform="translate(0 -.866)">
            <mask id="b" fill="#fff">
                <use xlink:href="#a"/>
            </mask>
            <path fill="#F7F7F7" d="M47.84.866C21.46.866 0 22.326 0 48.706c0 26.38 21.46 47.842 47.84 47.842 26.38 0 47.842-21.462 47.842-47.841C95.682 22.327 74.22.866 47.84.866m0 4c24.213 0 43.84 19.628 43.84 43.84 0 24.213-19.627 43.842-43.84 43.842C23.628 92.548 4 72.918 4 48.707 4 24.494 23.628 4.866 47.84 4.866" mask="url(#b)"/>
        </g>
        <path fill="#BFBFBF" d="M81.413 43.192L52.018 18.44c-1.132-.954-2.655-1.432-4.177-1.434-1.524.002-3.045.48-4.178 1.434L14.268 43.19c-1.007.844-1.007 1.192-1.007 1.6v3.374h69.16V44.79c0-.408 0-.756-1.008-1.6"/>
        <g transform="translate(13 48.134)">
            <mask id="d" fill="#fff">
                <use xlink:href="#c"/>
            </mask>
            <path fill="#B2B2B2" d="M57.044 48H12.638C5.802 48 .26 42.458.26 35.623V.031h69.16v35.592C69.42 42.458 63.88 48 57.044 48" mask="url(#d)"/>
        </g>
        <g transform="translate(20 29.134)">
            <mask id="f" fill="#fff">
                <use xlink:href="#e"/>
            </mask>
            <path fill="#5B8EF4" d="M51.231 66.621H4.451a3.654 3.654 0 0 1-3.655-3.653V3.774A3.653 3.653 0 0 1 4.45.121h46.781a3.652 3.652 0 0 1 3.653 3.653v59.194a3.653 3.653 0 0 1-3.653 3.653" mask="url(#f)"/>
        </g>
        <g transform="translate(13 48.134)">
            <mask id="h" fill="#fff">
                <use xlink:href="#g"/>
            </mask>
            <path fill="#FFF" d="M6.644 48h56.393c3.51 0 6.383-2.573 6.383-5.718V.031L.26 42.282C.26 45.427 3.132 48 6.644 48" mask="url(#h)"/>
        </g>
        <g transform="translate(13 48.134)">
            <mask id="j" fill="#fff">
                <use xlink:href="#i"/>
            </mask>
            <path fill="#EDEDED" d="M63.037 48H6.644C3.133 48 .261 45.427.261 42.282V.031l69.16 42.251c0 3.145-2.873 5.718-6.384 5.718" mask="url(#j)"/>
        </g>
        <path fill="#FFF" d="M50.925 45.663h1a4 4 0 0 1 0 8h-3a4 4 0 0 1-4-4h2a2 2 0 0 0 2 2h3a2 2 0 0 0 0-4l-1-2zm-11 4a4 4 0 0 1 4-4h3a4 4 0 0 1 4 4h-2a2 2 0 0 0-2-2h-3a2 2 0 0 0 0 4l1 2h-1a4 4 0 0 1-4-4z"/>
    </g>
</svg>
