<svg xmlns="http://www.w3.org/2000/svg" width="42" height="42" viewBox="0 0 42 42">
    <g fill="none" fill-rule="evenodd" transform="translate(1 1)">
        <circle cx="20" cy="20" r="20" stroke="#FFF" stroke-width="2"/>
        <path fill="#FFF" d="M31 20a.76.76 0 0 0-.21-.519l-7.116-7.266a.708.708 0 0 0-1.016 0 .744.744 0 0 0 0 1.038l5.889 6.013H8.719A.727.727 0 0 0 8 20c0 .406.322.734.719.734h19.827l-5.888 6.014a.745.745 0 0 0 0 1.037.709.709 0 0 0 1.016 0l7.115-7.266A.756.756 0 0 0 31 20z"/>
    </g>
</svg>
