<svg xmlns="http://www.w3.org/2000/svg" width="48" height="48" viewBox="0 0 48 48">
    <g fill="none" fill-rule="evenodd">
        <path fill="#A4A4A4" fill-rule="nonzero" d="M36.962 14.292h-7.271v-2.094a2.828 2.828 0 0 0-2.856-2.855H21.43a2.828 2.828 0 0 0-2.855 2.855v2.094h-7.272a4.078 4.078 0 0 0-4.074 4.074V34.24a4.078 4.078 0 0 0 4.074 4.074h25.66a4.078 4.078 0 0 0 4.074-4.074V18.366a4.078 4.078 0 0 0-4.074-4.074zm-4.682 1.637v20.787H15.985V15.93H32.28zm-12.07-3.693c0-.685.534-1.218 1.22-1.218h5.405c.686 0 1.219.533 1.219 1.218v2.094H20.21v-2.094zM8.867 34.241V18.366a2.454 2.454 0 0 1 2.436-2.437h3.046v20.787h-3.046c-1.332 0-2.436-1.066-2.436-2.475zm30.533 0a2.454 2.454 0 0 1-2.437 2.437h-3.045V15.929h3.045a2.454 2.454 0 0 1 2.437 2.437V34.24z"/>
    </g>
</svg>
