<svg xmlns="http://www.w3.org/2000/svg" width="24" height="24" viewBox="0 0 24 24">
    <g fill="none" fill-rule="evenodd">
        <g fill="#3D3D3D" fill-rule="nonzero">
            <path d="M12.107 10.105a1.173 1.173 0 0 0-.19.259l-.034-.035-.02.147a1.265 1.265 0 0 0-.09.633l-.337 2.355 2.356-.336c.218.023.435-.006.633-.09l.146-.02-.034-.035c.092-.052.18-.112.258-.19l4.256-4.255-2.688-2.687-4.256 4.254zM20.312 5.32l-.733-.732c-.54-.54-1.378-.576-1.873-.082l-.671.671 2.687 2.687.67-.672c.496-.493.46-1.332-.08-1.872z"/>
            <path d="M17.632 12.165v6.15H6.684V5.686h7.54l1.282-1.197c.137-.135.297-.186.467-.246.037-.1.088-.152.149-.242H5v16h14.316v-9.324l-1.684 1.49z"/>
        </g>
    </g>
</svg>
