<svg xmlns="http://www.w3.org/2000/svg" width="32" height="32" viewBox="0 0 32 32">
    <g fill="none" fill-rule="evenodd">
        <rect width="32" height="32" fill="#5B8EF4" rx="4"/>
        <path fill="#FFF" fill-rule="nonzero" d="M4.676 8.211c0 1.21.868 2.223 2.011 2.459v8.288h-.801a.503.503 0 0 0-.448.425l-.754 5.027a.503.503 0 0 0 .495.581H9.2a.503.503 0 0 0 .495-.58l-.754-5.028a.503.503 0 0 0-.495-.425h-.754V10.67A2.522 2.522 0 0 0 9.704 8.21 2.522 2.522 0 0 0 7.19 5.697a2.522 2.522 0 0 0-2.514 2.514zM7.19 6.703A1.5 1.5 0 0 1 8.698 8.21 1.5 1.5 0 0 1 7.19 9.719a1.5 1.5 0 0 1-1.509-1.508A1.5 1.5 0 0 1 7.19 6.703zm5.225 5.712a.503.503 0 0 0-.448.51v.754h-.754a.503.503 0 1 0 0 1.006h.754v.754a.503.503 0 0 0 0 .055v3.213h-.801a.503.503 0 0 0-.456.503v2.01c0 .278.225.503.503.504h.754v2.262h-.754a.503.503 0 1 0 0 1.005h1.162a.503.503 0 0 0 .205 0h1.147a.503.503 0 1 0 0-1.005h-.754v-2.262h11.565v2.262h-.754a.503.503 0 1 0 0 1.005h1.162a.503.503 0 0 0 .205 0h1.147a.503.503 0 1 0 0-1.005h-.754v-2.262h.754a.503.503 0 0 0 .503-.503V19.21a.503.503 0 0 0-.503-.503h-.754v-3.229-.793h.754a.503.503 0 1 0 0-1.006h-.754v-.754a.503.503 0 1 0-1.006 0v.754H12.973v-.754a.503.503 0 0 0-.558-.51zm.558 2.27h11.564v.754H12.974v-.754zm0 1.76h11.565v.502H12.973v-.503zm0 1.508h11.565v.754H12.973v-.754zm-1.257 1.76h14.079v1.005h-14.08v-1.006zm-5.351.25h.73a.503.503 0 0 0 .205 0h.715l.605 4.023H5.76l.605-4.022z"/>
    </g>
</svg>
