<svg xmlns="http://www.w3.org/2000/svg" width="24" height="24" viewBox="0 0 24 24">
    <path fill="#FFF" fill-rule="evenodd" d="M4 0h16a4 4 0 0 1 4 4v16a4 4 0 0 1-4 4H4a4 4 0 0 1-4-4V4a4 4 0 0 1 4-4zm2.125 13.6V7.55a.538.538 0 0 0-.158-.387A.502.502 0 0 0 5.594 7H4.53a.502.502 0 0 0-.373.163A.538.538 0 0 0 4 7.55V18h2.125v-2.2h12.75V18H21v-3.85a.538.538 0 0 0-.158-.387.502.502 0 0 0-.373-.163H6.125zm4.781-2.75c0-.607-.207-1.126-.622-1.555A2.013 2.013 0 0 0 8.78 8.65c-.586 0-1.087.215-1.502.645-.415.43-.623.948-.623 1.555s.208 1.126.623 1.555c.415.43.916.645 1.502.645.587 0 1.088-.215 1.503-.645.415-.43.622-.948.622-1.555zM21 13.05v-.55c0-.91-.311-1.689-.934-2.333-.622-.645-1.374-.967-2.253-.967h-5.844a.502.502 0 0 0-.374.163.538.538 0 0 0-.158.387v3.3H21z"/>
</svg>
