<svg xmlns="http://www.w3.org/2000/svg" width="24" height="24" viewBox="0 0 24 24">
    <g fill="none" fill-rule="evenodd">
        <path fill="#A4A4A4" fill-rule="nonzero" d="M12.649 18.363h.01-.01zM20.5 7.961v9.692c0 .251-.132.481-.346.616a.767.767 0 0 1-.67.068l-3.474-1.283-3.227 1.276a.669.669 0 0 1-.036.01.728.728 0 0 1-.501-.002c-.006-.001-1.09-.43-3.255-1.284l-3.476 1.283a.77.77 0 0 1-.67-.07.726.726 0 0 1-.345-.614V7.73c0-.309.197-.577.484-.683l3.713-1.37c.089-.033.089-.033.12-.038-.01.001-.01.001-.062.016.055-.016.055-.016.075-.02l.082-.015c.069-.005.069-.005.091-.004.047.001.047.001.1.006l.073.015c.023.004.023.004.106.032-.071-.024-.071-.024-.086-.026.018.003.018.003.086.025L12.5 6.941l3.218-1.273c.065-.021.065-.021.088-.026l-.051.014c.052-.015.052-.015.099-.025.027-.006.027-.006.07-.011.055-.004.055-.004.077-.004.036 0 .036 0 .098.006l.051.009c.066.016.066.016.117.033-.043-.014-.043-.014-.05-.015.023.005.023.005.087.028l3.75 1.616a.73.73 0 0 1 .446.668zm-8.045 9.408a.447.447 0 0 1 .122.026.198.198 0 0 0-.042-.01c-.06-.016-.062-.016-.08-.016zM9.002 6.622l.01-.002-.01.002zm.007-.006h-.025.025zm6.999.006l.006-.001h-.006zm-.027-.002l-.017-.004a.15.15 0 0 0 .017.004zm.033 0zm-.095-.019a3.184 3.184 0 0 0 .03.01l-.03-.01zm.078 9.382l3.503 1.293V8.143l-3.592-1.547.04.014.05.006a.834.834 0 0 0 .046-.004l.041-.014L12.5 8.017l-.184-.073L8.91 6.596a13.48 13.48 0 0 0 .044.015l.043.005a.766.766 0 0 0 .051-.005c.014-.004-1.168.433-3.547 1.311v9.355l3.503-1.294.178.07 3.405 1.347-.05-.014a.439.439 0 0 0-.073 0l-.048.014 3.582-1.417zM6 8.235v8.36l2.25-.831v-8.36L6 8.234zm3.25-2.266V16.46L5 18.03V7.538l4.25-1.57zm.5 1.462v8.345l2 .792V8.222l-2-.79zm3 .111V18.04l-4-1.583V5.96l4 1.582zm.5 9.026l2-.792V7.431l-2 .791v8.346zm3-10.608v10.496l-4 1.583V7.542l4-1.582zM19 8.437l-2.25-.97v8.297l2.25.83V8.438zm-3.25 8.024V5.948L20 7.778V18.03l-4.25-1.57z"/>
    </g>
</svg>
