<svg xmlns="http://www.w3.org/2000/svg" width="48" height="48" viewBox="0 0 48 48">
    <g fill="none" fill-rule="evenodd">
        <g fill="#A4A4A4" fill-rule="nonzero">
            <path d="M24.883 13.425v-2.163c0-.59-.462-1.052-1.051-1.052s-1.052.463-1.052 1.052v2.163c-4.247.505-7.57 4.164-7.57 8.538v15.35c0 .589.463 1.052 1.052 1.052h15.14c.589 0 1.051-.463 1.051-1.052V22.005c0-4.416-3.322-8.033-7.57-8.58zm-1.051 5.594c.589 0 1.051.462 1.051 1.051s-.462 1.052-1.051 1.052a1.041 1.041 0 0 1-1.052-1.052c0-.589.463-1.051 1.052-1.051zm6.518 17.243H17.313V22.005a6.514 6.514 0 0 1 5.467-6.435v1.514a3.151 3.151 0 0 0-2.102 2.986c0 1.725 1.43 3.154 3.154 3.154s3.154-1.43 3.154-3.154c0-1.388-.883-2.523-2.103-2.986V15.57a6.514 6.514 0 0 1 5.467 6.435v14.257z"/>
            <path d="M18.785 27.851h10.093v2.103H18.785zM18.785 31.636h10.093v2.103H18.785z"/>
        </g>
    </g>
</svg>
