<svg xmlns="http://www.w3.org/2000/svg" width="24" height="24" viewBox="0 0 24 24">
    <path fill="#FFF" fill-rule="evenodd" d="M4 0h16a4 4 0 0 1 4 4v16a4 4 0 0 1-4 4H4a4 4 0 0 1-4-4V4a4 4 0 0 1 4-4zm4.895 4.695c-.4 0-.8.41-.8.82v4.101c0 .821.8.821.8 1.642v7.383c0 .41.4.82.801.82h.801c.4 0 .801-.41.801-.82v-7.383c0-.82.801-.82.801-1.641V5.515c0-.41-.4-.82-.8-.82-.2 0-.2.25-.2.41v3.281c0 .16 0 .41-.201.41-.2 0-.2-.25-.2-.41V5.105c0-.16 0-.41-.2-.41h-.802c-.2 0-.2.25-.2.41v3.281c0 .16 0 .41-.2.41s-.2-.25-.2-.41V5.105c0-.16 0-.41-.2-.41zm8.01 0c-.8 0-2.296.193-2.803 1.23-.4.82-.4 2.872-.4 3.692v3.281c0 .41.4.82.8.82v4.923c0 .41.401.82.802.82h.8c.401 0 .802-.41.802-.82V4.695z"/>
</svg>
