<svg xmlns="http://www.w3.org/2000/svg" width="24" height="24" viewBox="0 0 24 24">
    <g fill="#FFF" fill-rule="evenodd">
        <path d="M4 0h16a4 4 0 0 1 4 4v16a4 4 0 0 1-4 4H4a4 4 0 0 1-4-4V4a4 4 0 0 1 4-4zm8.13 3.586c-1.67 0-3.974.476-4.927.872-.954.397-1.59.793-1.788 1.785L4.7 11.74v7.574H5.93v1.188c0 1.448 2.123 1.448 2.123 0v-1.188h8.007v1.188c0 1.448 2.123 1.448 2.123 0v-1.188h1.232V11.74L18.7 6.243c-.199-.992-.835-1.388-1.788-1.785-.954-.396-3.258-.872-4.927-.872h.143z"/>
        <path d="M17.122 16.94a1.018 1.018 0 1 0 .001-2.036 1.018 1.018 0 0 0-.001 2.036zM6.994 16.94a1.018 1.018 0 1 1-.002-2.036 1.018 1.018 0 0 1 .002 2.036zM11.98 5.866H9.03c-.595 0-.595-.892 0-.892h6.056c.595 0 .595.892 0 .892h-3.107zM11.98 6.767H7.423c-.63 0-.794.32-.87.804l-.557 3.987c-.052.382.059.761.587.761h10.947c.53 0 .64-.38.588-.761l-.557-3.987c-.076-.484-.24-.804-.87-.804h-4.713z"/>
    </g>
</svg>
