<svg xmlns="http://www.w3.org/2000/svg" width="32" height="32" viewBox="0 0 32 32">
    <g fill="none" fill-rule="evenodd">
        <rect width="32" height="32" fill="#5B8EF4" rx="4"/>
        <g fill="#FFF" fill-rule="nonzero">
            <path d="M26.49 16.114c-.227-2.151-1.08-4.054-2.603-5.682-1.753-1.874-3.931-2.888-6.492-3.12 0-.163-.006-.33.002-.496.021-.468-.403-.855-.879-.807-.354.035-.614.263-.704.624a.59.59 0 0 0-.016.132c-.004.185-.003.37-.003.563a9.786 9.786 0 0 0-4.515 1.555A9.81 9.81 0 0 0 8.002 12.4a9.722 9.722 0 0 0-1.17 3.65.435.435 0 0 0 .665.415 4.51 4.51 0 0 1 2.559-.729c1.133.014 2.122.398 2.975 1.121.16.137.397.138.558 0a4.625 4.625 0 0 1 2.19-1.035l-.001.106-.01 4.82h1.6l.01-4.807c0-.025-.007-.054.003-.075.008-.018.039-.04.056-.036.484.078.94.243 1.37.474.3.161.581.35.835.58l.003.002a.432.432 0 0 0 .571.008 4.536 4.536 0 0 1 3.014-1.131 4.56 4.56 0 0 1 2.587.757.433.433 0 0 0 .673-.406zM15.767 22.102l-.005 2.443c0 .18-.053.341-.2.46-.144.114-.455.143-.625-.004a.61.61 0 0 1-.213-.497c.003-.375.003-.75.003-1.124 0-.268-.215-.565-.469-.667a.8.8 0 0 0-.82.102.714.714 0 0 0-.307.569c-.014.473-.02.948-.003 1.42.015.383.152.732.39 1.038.277.357.636.59 1.073.697.291.072.588.072.887.046.31-.028.599-.117.872-.262a1.98 1.98 0 0 0 .635-.553c.18-.233.293-.5.357-.787a.882.882 0 0 0 .02-.194l.005-2.688h-1.6z"/>
        </g>
    </g>
</svg>
