<svg xmlns="http://www.w3.org/2000/svg" xmlns:xlink="http://www.w3.org/1999/xlink" width="93" height="37" viewBox="0 0 93 37">
    <defs>
        <path id="a" d="M0 43h93V0H0z"/>
    </defs>
    <g fill="none" fill-rule="evenodd" transform="translate(0 -3)">
        <path fill="#FFF" d="M3.85 23.659c.125.866.37 1.514.735 1.942.668.78 1.813 1.17 3.435 1.17.972 0 1.761-.102 2.366-.309 1.15-.393 1.726-1.126 1.726-2.198 0-.626-.282-1.11-.845-1.454-.563-.334-1.457-.63-2.68-.887l-2.089-.45c-2.055-.446-3.464-.931-4.233-1.454-1.3-.874-1.951-2.242-1.951-4.102 0-1.698.636-3.108 1.909-4.232C3.496 10.562 5.364 10 7.83 10c2.058 0 3.815.53 5.268 1.59 1.454 1.057 2.216 2.595 2.287 4.61h-3.876c-.071-1.141-.59-1.951-1.557-2.432-.645-.317-1.445-.475-2.403-.475-1.065 0-1.915.206-2.55.617-.635.412-.953.987-.953 1.723 0 .678.314 1.184.94 1.518.402.223 1.256.485 2.564.784l3.387.785c1.484.344 2.597.802 3.338 1.376C15.425 20.99 16 22.28 16 23.968c0 1.731-.682 3.17-2.045 4.315C12.592 29.427 10.667 30 8.178 30c-2.54 0-4.538-.564-5.994-1.692C.727 27.181 0 25.631 0 23.658h3.85zM21.448 19.6c-.485.504-.788 1.184-.913 2.044h5.903c-.062-.916-.366-1.611-.912-2.086-.546-.474-1.225-.712-2.033-.712-.879 0-1.56.251-2.045.755m5.126-2.982c.914.413 1.67 1.063 2.265 1.953.537.784.885 1.693 1.045 2.73.092.605.129 1.479.112 2.618h-9.545c.053 1.325.51 2.253 1.37 2.785.524.332 1.153.498 1.89.498.78 0 1.415-.202 1.902-.607.267-.217.502-.52.706-.908h3.498c-.092.784-.516 1.579-1.27 2.387C27.373 29.358 25.73 30 23.617 30c-1.745 0-3.284-.541-4.617-1.624-1.333-1.082-2-2.844-2-5.285 0-2.286.601-4.04 1.806-5.26C20.009 16.61 21.57 16 23.492 16c1.14 0 2.169.206 3.082.619M30 19.158v-2.465h1.742V13h3.23v3.693H37v2.465h-2.027v6.996c0 .543.065.881.194 1.015.13.134.527.2 1.192.2a8.177 8.177 0 0 0 .641-.024v2.587l-1.546.06c-1.543.058-2.597-.226-3.163-.85-.366-.396-.55-1.007-.55-1.833v-8.15H30zM52 16v3.187h-5.171V34h-3.634V19.187H38V16zM60 21.023v3.402a10.698 10.698 0 0 0-1.037-.059c-1.449 0-2.421.435-2.919 1.305-.278.49-.416 1.243-.416 2.26V34H52V21.303h3.438v2.213c.556-.846 1.04-1.425 1.453-1.735.674-.52 1.55-.781 2.629-.781.067 0 .124.002.17.006.046.004.15.01.31.017z"/>
        <mask id="b" fill="#fff">
            <use xlink:href="#a"/>
        </mask>
        <path fill="#FFF" d="M61 34h3V21h-3zM75.674 25.261c-.476-.797-1.248-1.195-2.315-1.195-1.283 0-2.165.604-2.645 1.81-.248.64-.372 1.453-.372 2.439 0 1.559.418 2.655 1.253 3.287.497.37 1.084.554 1.763.554.985 0 1.737-.378 2.253-1.133.518-.755.777-1.76.777-3.017 0-1.034-.238-1.949-.714-2.745m2.688-2.525C79.454 23.894 80 25.594 80 27.834c0 2.364-.534 4.166-1.601 5.406-1.067 1.24-2.443 1.858-4.125 1.858-1.071 0-1.962-.266-2.672-.8-.387-.295-.766-.726-1.137-1.292V40H67V21.296h3.354v1.982c.38-.583.783-1.043 1.212-1.379.783-.599 1.715-.899 2.795-.899 1.575 0 2.908.58 4.001 1.736" mask="url(#b)"/>
        <path fill="#FFB757" d="M63.903 9.959a1.89 1.89 0 0 1-1.778-1.993 1.886 1.886 0 0 1 1.972-1.8 1.89 1.89 0 0 1 1.778 1.993 1.887 1.887 0 0 1-1.972 1.8m.355-6.952C61.5 2.864 59.15 5.01 59.007 7.799a5.069 5.069 0 0 0 .839 3.074l3.027 5.676a.85.85 0 0 0 .704.45.847.847 0 0 0 .745-.375l3.644-5.414a.865.865 0 0 0 .106-.222c.535-.758.87-1.674.921-2.673.143-2.789-1.978-5.166-4.735-5.308M0 34h41v-3H0z" mask="url(#b)"/>
        <path fill="#FFF" d="M81.852 32.852A.482.482 0 0 1 81.5 33a.482.482 0 0 1-.352-.148A.48.48 0 0 1 81 32.5c0-.136.05-.253.148-.352A.482.482 0 0 1 81.5 32c.136 0 .253.05.352.148A.484.484 0 0 1 82 32.5a.48.48 0 0 1-.148.352M84.148 34h.686v-7.261h-.686V34zM85 24.684a.82.82 0 0 1-.142.487c-.095.131-.212.198-.353.198-.14 0-.26-.067-.357-.198a.797.797 0 0 1-.148-.487c0-.19.05-.351.148-.485.097-.133.217-.199.357-.199.14 0 .258.066.353.2a.818.818 0 0 1 .142.484zM91.343 32.38c.507-.547.761-1.264.761-2.153 0-.89-.254-1.607-.761-2.154-.508-.547-1.12-.82-1.837-.82-.716 0-1.326.262-1.83.787-.503.524-.754 1.233-.754 2.126 0 .893.254 1.623.76 2.187.509.564 1.118.847 1.83.847s1.323-.273 1.83-.82m-4.382.54c-.64-.72-.96-1.638-.96-2.754 0-1.115.317-2.013.953-2.692.636-.681 1.444-1.02 2.426-1.02.63 0 1.185.158 1.663.48.477.32.831.732 1.062 1.239V24H93v9.866h-.896v-1.6c-.23.507-.585.923-1.062 1.248-.478.325-1.032.486-1.663.486-.973 0-1.78-.36-2.42-1.08" mask="url(#b)"/>
    </g>
</svg>
