<?xml version="1.0" encoding="UTF-8" standalone="no"?>
<svg width="32px" height="32px" viewBox="0 0 32 32" version="1.1" xmlns="http://www.w3.org/2000/svg" xmlns:xlink="http://www.w3.org/1999/xlink">
    <!-- Generator: Sketch 39.1 (31720) - http://www.bohemiancoding.com/sketch -->
    <title>favicon</title>
    <desc>Created with Sketch.</desc>
    <defs></defs>
    <g id="Favicon" stroke="none" stroke-width="1" fill="none" fill-rule="evenodd">
        <g id="favicon" fill="#000000">
            <path d="M24.7212794,5.81855175 C24.8206396,5.91095453 24.5800207,5.98481019 24.496895,6.05361304 C24.5436455,6.07016324 24.5914642,6.08281038 24.6403204,6.09155445 C24.5566454,6.32679728 24.4921345,6.35496591 24.2576492,6.45735327 C24.3398289,6.51520333 24.4220086,6.5730534 24.5041883,6.63090347 C24.4121824,6.66500233 23.7543786,6.8692627 23.7721389,6.93836811 C23.8437601,6.93419274 24.3276225,6.82433207 24.3409275,6.86299964 C24.2023236,6.94623475 23.8601167,6.99494742 24.0431824,7.18407962 C23.9210572,7.26038604 23.8761376,7.2743342 23.7837961,7.37085183 C23.8851093,7.38758358 23.987277,7.39327176 24.0902687,7.38791639 C24.0945104,7.43324035 22.9703605,7.70233999 22.7655978,7.90236447 C22.7904073,7.90793163 23.2251694,7.88321222 23.2294722,7.91041265 C22.8270876,8.02632458 22.4345598,8.17591178 22.0568932,8.33233691 C22.1447794,8.32201951 23.0461928,8.22005574 23.0818966,8.33505998 C22.7747526,8.48712821 22.3992832,8.49408716 22.0712358,8.59390273 C22.0881417,8.70358186 22.2577803,8.54425212 22.2813387,8.65266049 C22.0742569,8.72818024 20.2660288,8.85577111 20.2598645,8.96457281 C20.3244975,8.97165279 21.0565469,8.88106539 21.0701265,8.95368054 C20.0712144,9.21842327 18.873124,9.17673007 17.8427193,9.2120997 C16.6959265,9.25149341 15.5498355,9.21594225 14.4034698,9.18060288 C13.8716362,9.16420395 13.3548776,8.90642018 13.5831681,9.52525252 C13.7550649,9.99126024 13.909171,10.4610803 14.0366059,10.9412177 C14.3226328,12.0189778 14.4939194,13.1208521 14.6053639,14.228808 C14.6668233,14.8398947 14.7028932,14.7451925 15.3166013,14.7464632 C15.8702844,14.747613 16.423998,14.7486114 16.9777116,14.7497612 C18.0990846,14.7520909 19.2243637,14.7282187 20.3440278,14.7964467 C20.7841912,14.823284 21.2182514,14.7076747 21.1011918,15.2708051 C21.05969,15.470527 20.9048821,15.6397506 20.8459556,15.8014706 C20.8235874,15.8628909 20.905645,15.8615294 20.8767768,15.9534783 C20.8465354,16.0499354 20.74864,16.0797681 20.7179714,16.1419146 C20.6803756,16.2181 20.793285,16.3392463 20.7528512,16.3802738 C20.6673452,16.4671095 20.4899555,16.434826 20.3899239,16.515338 C20.4801598,16.5289836 20.5704263,16.5425989 20.6606928,16.5562445 C20.6685049,16.6107967 20.3782973,16.8391713 20.3732316,16.9325423 C20.3695697,16.9995298 20.5129036,16.9867011 20.4999342,17.0613737 C20.2478412,17.0881808 20.2814699,17.0997387 20.1474434,17.2612771 C20.2516557,17.3147703 20.2433554,17.3715614 20.1224813,17.4316202 C20.0035603,17.5045984 20.0167127,17.5863207 20.1619386,17.6768173 C20.1087491,17.7995369 19.6847897,17.9746604 19.6847897,17.9747815 C19.7263526,17.9874589 19.7644976,18.0067321 19.7992249,18.0326315 C19.3072147,18.2702344 18.3483702,18.0743853 17.8000579,18.074234 C17.0381639,18.0740524 16.2762393,18.0735986 15.5143453,18.073175 C15.3504742,18.0730842 14.9237073,17.9880035 14.7853476,18.0999518 C14.6490934,18.2102058 14.7440594,18.7644712 14.7378036,18.939746 C14.7115903,19.6755493 14.6627646,20.4105356 14.603655,21.1444025 C14.4932785,22.5142872 14.3244333,23.870708 14.0495142,25.2176282 C13.909354,25.9042347 13.7740764,26.5918094 13.6322989,27.278083 C13.5144459,27.8485658 13.5198168,28.8138934 12.8862122,29 C12.8380579,28.6509329 12.7287494,28.5781968 12.7287494,28.2202343 C12.6963719,28.2174507 12.6670765,28.3080987 12.6388186,28.3390509 C12.6141006,28.2842567 12.3619771,27.6570433 12.4357344,27.6548649 C12.3813548,27.6905371 12.3524561,27.7434251 12.3490383,27.8134987 C12.3230691,27.7289626 12.278058,27.7087514 12.2140048,27.7528953 C12.2202606,27.6546531 12.3205058,26.8623916 12.2473588,26.8446311 C12.2069556,26.8348281 12.0358521,27.2031381 11.9494612,27.2568128 C11.7666091,27.110221 12.1622496,26.278475 12.0765605,26.0041108 C11.9070744,26.1677974 11.9761322,26.4758672 11.8093316,26.6291759 C11.8640468,26.2776278 11.7604449,26.4018905 11.6730164,26.1146673 C11.6283409,25.9678334 11.7182717,25.6747708 11.6254114,25.569146 C11.5434758,25.6433042 11.495291,26.2190213 11.3979448,26.1940599 C11.3980974,26.1926378 11.6340169,24.9207835 11.368924,25.011855 C11.3101807,25.0538205 11.2798172,25.1146357 11.2777726,25.1943006 C11.1926329,25.0693723 11.3019413,24.548994 11.1931211,24.5216422 C11.002762,24.4738373 10.9360845,25.0162119 10.8624188,25.1203541 C10.8024547,24.9347619 11.0240317,24.4138088 10.7689176,24.5198571 C10.8651347,23.3702988 10.9084064,22.2419502 11.0135952,21.0331803 C11.0710875,20.3722614 11.116892,19.7100415 11.1305632,19.0466718 C11.1337674,18.89064 11.2205245,18.3533182 11.1354153,18.2237607 C10.9799055,17.9869445 10.7722133,18.274319 10.5640634,18.1292399 C10.3705612,17.9943573 10.4794729,16.8680358 10.4733392,16.6095259 C10.4640929,16.2185236 10.220819,14.9029791 10.488994,14.7498822 C10.5969597,14.6882501 10.8906766,14.8254625 10.9747483,14.7213505 C11.0832328,14.5869822 10.9270212,14.1195827 10.9047445,13.94455 C10.8137152,13.229321 10.7040405,12.5203551 10.5133152,11.8234917 C10.3409606,11.1937974 10.1217029,10.5858875 9.81220917,10.0092325 C9.50494314,9.4366923 8.98977131,8.93706982 9.00881332,8.28356374 C9.02269812,7.80684529 9.06465768,7.30389462 9.07140172,6.81610236 C9.07500261,6.5553232 8.90518084,5.57680382 9.07707771,5.42134689 C9.27781223,5.23983927 10.4784659,5.54557931 10.7635468,5.57671305 C11.5461002,5.66218713 12.3302099,5.73377357 13.1156928,5.78705493 C14.630143,5.8897146 16.151978,5.93116574 17.6695713,5.88913973 C19.3425523,5.8427568 21.0368335,5.74288072 22.6814956,5.42304124 C23.0481458,5.35175737 24.7284812,4.74826497 24.9691917,5.12017556 C25.0864649,5.30144112 24.839468,5.62745289 24.7212794,5.81855175 C24.7266502,5.82354404 24.7515818,5.76953653 24.7212794,5.81855175" id="friday_favicon"></path>
        </g>
    </g>
</svg>